<?xml version="1.0" encoding="UTF-8"?>
<svg xmlns="http://www.w3.org/2000/svg" width="158" height="60" viewBox="0 0 158 60" fill="none">
  <g clip-path="url(#clip0_11698_214440)">
    <path d="M37.0536 14.9988L27.7895 1.5979L18.5254 14.9988H37.0536Z" fill="#668D3C"></path>
    <path d="M46.3211 14.9991L50.0014 0L27.793 14.9991H46.3211Z" fill="#9CB844"></path>
    <path d="M9.26228 15.0001L5.58203 0.000976562L27.7904 15.0001H9.26228Z" fill="#9CB844"></path>
    <path d="M27.791 44.9971L37.0551 59.9962L46.3192 44.9971H27.791Z" fill="#58237A"></path>
    <path d="M18.5293 59.9962L27.7934 44.9971L37.0575 59.9962H18.5293Z" fill="#49267A"></path>
    <path d="M9.26367 44.9971L18.5277 59.9962L27.7918 44.9971H9.26367Z" fill="#58237A"></path>
    <path d="M27.791 14.9988L37.0551 29.9979L46.3192 14.9988H27.791Z" fill="#B53481"></path>
    <path d="M9.26367 14.9988L18.5277 29.9979L27.7918 14.9988H9.26367Z" fill="#B53481"></path>
    <path d="M27.791 44.9967L37.0551 29.9976L46.3192 44.9967H27.791Z" fill="#6E297D"></path>
    <path d="M9.26367 44.9967L18.5277 29.9976L27.7918 44.9967H9.26367Z" fill="#6E297D"></path>
    <path d="M18.5293 29.9979L27.7934 14.9988L37.0575 29.9979H18.5293Z" fill="#DA7396"></path>
    <path d="M37.0547 29.9979L46.3188 14.9988L55.5828 29.9979H37.0547Z" fill="#8F3682"></path>
    <path d="M0 30.0016L9.26408 15.0024L18.5282 30.0016H0Z" fill="#8F3682"></path>
    <path d="M18.5293 29.9976L27.7934 44.9967L37.0575 29.9976H18.5293Z" fill="#A6488B"></path>
    <path d="M37.0547 29.9976L46.3188 44.9967L55.5828 29.9976H37.0547Z" fill="#753582"></path>
    <path d="M0 29.9976L9.26408 44.9967L18.5282 29.9976H0Z" fill="#753582"></path>
  </g>
  <path fill-rule="evenodd" clip-rule="evenodd" d="M122.171 33.7146V33.4867C122.171 33.3499 122.235 33.1863 122.342 33.0576C122.455 32.9215 122.637 32.8013 122.882 32.8013H123.464L133.123 43.5559V33.6393C133.123 33.5024 133.187 33.3388 133.294 33.2101C133.408 33.074 133.589 32.9538 133.834 32.9538H135.263C135.404 32.9538 135.573 33.0146 135.706 33.1175C135.848 33.2259 135.974 33.4011 135.974 33.6393V48.7403C135.974 48.8772 135.91 49.0408 135.803 49.1695C135.69 49.3056 135.508 49.4258 135.263 49.4258H134.678L125.021 38.3787V48.5878C125.021 48.7247 124.957 48.8883 124.85 49.017C124.737 49.153 124.555 49.2733 124.31 49.2733H122.881C122.741 49.2733 122.572 49.2124 122.438 49.1096C122.297 49.0011 122.17 48.8259 122.17 48.5878L122.171 33.7146ZM65.3379 41.4182C65.3379 36.8722 69.2493 32.9534 73.9859 32.9534C76.435 32.9534 78.076 33.7439 79.6981 35.1467L79.7073 35.1546C79.8411 35.2832 79.8957 35.4616 79.8957 35.6218C79.8957 35.7792 79.8428 35.9538 79.7143 36.0818L78.7552 37.157C78.6434 37.2644 78.5072 37.3369 78.3314 37.3369C78.1754 37.3369 78.0155 37.2783 77.8502 37.1989L77.8244 37.1865L77.8024 37.1684C76.7243 36.2804 75.3477 35.6972 73.9859 35.6972C70.792 35.6972 68.3474 38.3309 68.3474 41.2656C68.3474 44.2004 70.792 46.8341 73.9859 46.8341C75.6558 46.8341 76.7142 46.2581 77.7965 45.3678C77.9293 45.2446 78.1099 45.1944 78.2719 45.1944C78.4369 45.1944 78.6212 45.2465 78.7547 45.3747L79.8658 46.4425C79.9996 46.571 80.0545 46.7492 80.0545 46.9095C80.0545 47.0697 79.9996 47.2479 79.8658 47.3764C78.225 48.9531 76.0967 49.5779 73.9859 49.5779C69.2608 49.5779 65.3379 45.9752 65.3379 41.4182ZM99.3093 37.2997C99.3093 35.5042 100.835 32.9534 104.624 32.9534C105.855 32.9534 106.92 33.2688 107.695 33.6021C108.084 33.769 108.401 33.9411 108.633 34.0822C108.858 34.2195 109.016 34.3354 109.075 34.3922L109.08 34.3968C109.276 34.5855 109.617 34.9126 109.275 35.4263L109.173 35.5788C108.923 35.9546 108.883 36.0152 108.625 36.3687C108.486 36.5582 108.37 36.6988 108.16 36.7563C107.964 36.8102 107.756 36.6923 107.534 36.5665C107.485 36.539 107.436 36.5111 107.386 36.4846C107.2 36.3814 106.725 36.1232 106.436 36.0028C105.854 35.7603 105.134 35.5446 104.465 35.5446C102.677 35.5446 102.001 36.6748 102.001 37.2997C102.001 37.8402 102.207 38.2764 102.659 38.6757C103.122 39.0847 103.842 39.4538 104.866 39.8324L104.871 39.8343C106.223 40.369 107.487 40.9533 108.412 41.7638C109.349 42.584 109.938 43.6349 109.938 45.079C109.938 47.5231 107.577 49.5779 104.465 49.5779C102.997 49.5779 101.811 49.2251 100.948 48.8106C100.095 48.4007 99.6595 47.9635 99.3494 47.6469C99.0393 47.3303 99.1187 46.9803 99.3345 46.6542C99.5822 46.2801 99.725 46.0663 99.9885 45.7045C100.148 45.485 100.277 45.3966 100.484 45.3682C100.687 45.3403 100.948 45.3888 101.138 45.5273C101.239 45.6005 101.321 45.6632 101.396 45.7209C101.638 45.9051 101.814 46.0398 102.317 46.3097C102.977 46.6643 103.809 46.9867 104.624 46.9867C106.126 46.9867 107.088 46.1345 107.088 45.079C107.088 44.4768 106.816 44.0027 106.26 43.5578C105.694 43.1047 104.851 42.6962 103.741 42.2392C102.543 41.7785 101.437 41.2312 100.629 40.4551C99.8121 39.6702 99.3093 38.6591 99.3093 37.2997ZM114.786 33.1066C114.54 33.1066 114.359 33.2269 114.246 33.3629C114.139 33.4916 114.075 33.6552 114.075 33.7921V48.5881C114.075 48.8262 114.201 49.0014 114.342 49.1099C114.476 49.2127 114.645 49.2735 114.786 49.2735H116.373C116.618 49.2735 116.8 49.1533 116.913 49.0173C117.02 48.8885 117.084 48.725 117.084 48.5881V33.7921C117.084 33.5539 116.958 33.3787 116.816 33.2703C116.683 33.1675 116.514 33.1066 116.373 33.1066H114.786ZM90.091 33.4288C89.9976 33.2545 89.8026 32.975 89.4639 32.975C89.1251 32.975 88.9302 33.2229 88.8371 33.4245L81.7246 48.3086C81.6122 48.5204 81.6588 48.768 81.7281 48.8678C81.8452 49.0366 82.0853 49.2568 82.3255 49.262C82.8558 49.2735 83.8278 49.2735 83.8278 49.2735C83.9643 49.2735 84.1253 49.2154 84.2454 49.1462C84.3087 49.1096 84.3476 49.08 84.4011 49.0207C84.4434 48.9738 84.4886 48.9001 84.5337 48.7993C84.7656 48.2808 84.9983 47.7964 85.2318 47.3102C85.4491 46.8577 85.6677 46.4025 85.8866 45.9177H93.2009L94.5492 48.7967C94.5841 49.0988 94.9008 49.2735 95.257 49.2735H96.6857C96.9297 49.2735 97.1317 49.1517 97.2327 48.9576C97.3303 48.7699 97.3204 48.542 97.2147 48.3364L90.091 33.4288ZM86.893 43.479L89.465 37.9868L92.0371 43.479H86.893ZM148.595 32.9534C143.858 32.9534 140.106 36.7199 140.106 41.2657C140.106 45.8171 143.864 49.4254 148.595 49.4254C153.482 49.4254 157.243 45.8199 157.243 41.2657C157.243 36.7142 153.326 32.9534 148.595 32.9534ZM142.797 41.1135C142.797 38.0382 145.389 35.545 148.594 35.545C151.8 35.545 154.392 38.0382 154.392 41.1135C154.392 44.1888 151.8 46.682 148.594 46.682C145.389 46.682 142.797 44.1888 142.797 41.1135Z" fill="white"></path>
  <path fill-rule="evenodd" clip-rule="evenodd" d="M157.468 26.5381C157.601 26.3453 157.586 26.1105 157.485 25.9119L150.438 10.7734C150.346 10.5784 149.985 10.371 149.632 10.3756C149.258 10.3804 148.94 10.5468 148.806 10.8423L141.768 25.9594C141.678 26.1824 141.815 26.3938 141.955 26.557C142.102 26.7271 142.323 26.821 142.606 26.821H144.135C144.266 26.821 144.421 26.7645 144.537 26.6974C144.598 26.6619 144.754 26.4934 144.814 26.3606C144.874 26.2277 146.118 23.4148 146.118 23.4148H153.311L154.612 26.3557C154.736 26.6331 154.95 26.821 155.294 26.821H156.822C157.097 26.821 157.336 26.7308 157.468 26.5381ZM92.983 10.5081C93.0986 10.4409 93.2537 10.3845 93.3852 10.3845H93.6909C93.8404 10.3845 93.9655 10.4556 94.0551 10.5207C94.1444 10.5856 94.2306 10.6691 94.3029 10.7392L94.3388 10.774L101.233 25.9127C101.333 26.1111 101.348 26.3455 101.216 26.5381C101.083 26.7308 100.845 26.8209 100.57 26.8209H99.0411C98.6971 26.8209 98.3915 26.6504 98.3592 26.3556L97.0582 23.4148H89.865L88.5619 26.3605C88.5471 26.4453 88.5015 26.5124 88.4607 26.5579C88.4092 26.6155 88.3452 26.6618 88.2842 26.6973C88.1687 26.7645 88.0136 26.8209 87.8821 26.8209H86.3535C86.0784 26.8209 85.8399 26.7308 85.7073 26.5381C85.5745 26.3452 85.5898 26.1104 85.6908 25.9119L92.7059 10.8423C92.7212 10.7587 92.7662 10.6925 92.8065 10.6475C92.8581 10.5899 92.9221 10.5435 92.983 10.5081ZM105.003 10.6809C104.816 10.6809 104.634 10.7263 104.5 10.856C104.366 10.986 104.318 11.1636 104.318 11.3464V26.1555C104.318 26.3383 104.366 26.5158 104.5 26.6459C104.634 26.7756 104.816 26.821 105.003 26.821H113.258C113.445 26.821 113.627 26.7756 113.761 26.6459C113.895 26.5158 113.942 26.3383 113.942 26.1555V24.9708C113.942 24.7881 113.895 24.6105 113.761 24.4804C113.627 24.3507 113.445 24.3053 113.258 24.3053H107.216V11.3464C107.216 11.1636 107.169 10.9861 107.035 10.856C106.901 10.7263 106.719 10.6809 106.532 10.6809H105.003ZM117.537 10.6809C117.35 10.6809 117.168 10.7263 117.034 10.856C116.9 10.9861 116.852 11.1636 116.852 11.3464V26.1555C116.852 26.3383 116.9 26.5158 117.034 26.6459C117.168 26.7756 117.35 26.821 117.537 26.821H119.066C119.253 26.821 119.435 26.7756 119.569 26.6459C119.703 26.5158 119.75 26.3383 119.75 26.1555V11.3464C119.75 11.1636 119.703 10.9861 119.569 10.856C119.435 10.7263 119.253 10.6809 119.066 10.6809H117.537ZM68.2353 26.3254L69.8271 16.7922L73.7786 26.5754L73.8181 26.6137L73.8181 26.6137C73.8904 26.6838 73.9765 26.7672 74.066 26.8322C74.1555 26.8973 74.2806 26.9684 74.4301 26.9684H75.0416C75.3872 26.9684 75.6941 26.7963 75.724 26.4989L79.5365 17.06L81.0836 26.3254C81.0905 26.4266 81.1428 26.5058 81.1889 26.5573C81.2405 26.6149 81.3044 26.6612 81.3654 26.6967C81.481 26.7639 81.6361 26.8203 81.7676 26.8203H83.2962C83.4834 26.8203 83.6654 26.7749 83.7993 26.6452C83.9336 26.5151 83.9809 26.3375 83.9809 26.1548V26.1341L81.0596 10.9407L81.0038 10.8867C80.9315 10.8166 80.8454 10.7332 80.7559 10.6682C80.6664 10.6031 80.5413 10.532 80.3918 10.532H80.0861C79.9546 10.532 79.7995 10.5884 79.6839 10.6556C79.623 10.691 79.559 10.7374 79.5074 10.795C79.4662 10.8411 79.42 10.9092 79.4057 10.9955L74.8102 22.054L70.0354 10.9232L69.9976 10.8867C69.9253 10.8166 69.8392 10.7332 69.7498 10.6682C69.6602 10.6031 69.5352 10.532 69.3856 10.532H69.0799C68.9484 10.532 68.7933 10.5884 68.6778 10.6556C68.6168 10.691 68.5528 10.7374 68.5013 10.795C68.4559 10.8457 68.4045 10.9232 68.3963 11.0222L65.3379 26.1331V26.1548C65.3379 26.3375 65.3853 26.5151 65.5196 26.6452C65.6534 26.7749 65.8355 26.8203 66.0226 26.8203H67.5513C67.6828 26.8203 67.8378 26.7639 67.9534 26.6967C68.0144 26.6612 68.0784 26.6149 68.1299 26.5573C68.176 26.5058 68.2283 26.4266 68.2353 26.3254ZM96.6444 21.4896L93.3789 14.663L90.2853 21.4896H96.6444ZM125.639 10.532C125.452 10.532 125.27 10.5775 125.136 10.7072C125.002 10.8372 124.954 11.0148 124.954 11.1975V26.451C124.954 26.6337 125.002 26.8113 125.136 26.9414C125.27 27.0711 125.452 27.1165 125.639 27.1165H127.168C127.355 27.1165 127.537 27.0711 127.671 26.9414C127.805 26.8113 127.853 26.6337 127.853 26.451V16.0917L137.611 27.2646H138.327C138.514 27.2646 138.696 27.2192 138.83 27.0895C138.964 26.9594 139.012 26.7818 139.012 26.5991V11.4937C139.012 11.311 138.964 11.1334 138.83 11.0033C138.696 10.8736 138.514 10.8282 138.327 10.8282H136.798C136.611 10.8282 136.429 10.8736 136.295 11.0033C136.161 11.1334 136.114 11.311 136.114 11.4937V21.4204L126.353 10.532H125.639ZM149.551 14.5311L152.896 21.4894H146.384L149.551 14.5311Z" fill="#B53481"></path>
  <defs>
    <clipPath id="clip0_11698_214440">
      <rect width="55.5837" height="59.9961" fill="white"></rect>
    </clipPath>
  </defs>
</svg>
